# xmcd
#
# Track frame offsets:
#	150
#	30047
#	44540
#	65365
#	92770
#	115057
#	137427
#	159822
#	189922
#	203895
#
# Disc length: 2991
#
# Revision: 6
# Processed by: cddbd v1.5.1PL0 Copyright (c) Steve Scherf et al.
# Submitted via: ExactAudioCopy v0.95a5
# Normalized: r5:DSETVAR1
#
DISCID=720bad0a
DTITLE=Various Artist - A Celebration of Blues- The Great Guitarists, Vol. 1
DYEAR=1996
DGENRE=Blues
TTITLE0=Buddy Guy - Are You Losing Your Mind
TTITLE1=Preston Shannon Band - Crosscut Saw
TTITLE2=Hubert Sumlin - Come Back Little Girl
TTITLE3=Ronnie Earl and the Broadcasters - Baby Doll Blues
TTITLE4=Johnny Winter - Mojo Boogie
TTITLE5=Dave Hole - You Got To Reap Everything You Sow
TTITLE6=Magic Slim - Why Does a Woman Treat a Good Man So Bad
TTITLE7=Roy Buchanan - When a Guitar Plays the Blues
TTITLE8=Amos Garrett - Bert's Boogie
TTITLE9=Duke Robillard and Roomfull of Blues - Stormy Monday
EXTD=LABEL =St-Clair Entertainment Group Inc.\nID =CBL25172\nUPC =777966-251721\nCOPYRIGHT =1996
EXTT0=Buddy Guy " Stone Crazy " CD
EXTT1=Preston Shannon Band " Break the Ice " CD
EXTT2=Hubert Sumlin " Healing Feeling " CD
EXTT3=Ronnie Earl and the Broadcasters " Deep Blues " CD
EXTT4=Johnny Winter " Third Degree " CD
EXTT5=Dave Hole " Working Overtime" Cd
EXTT6=Magic Slim and The Teardrops " Raw Magic " CD
EXTT7=Roy Buchanan " When a Guitar Plays the Blues" CD
EXTT8=Amos Garrett " I Make My House in My Shoe" CD
EXTT9=Roomful of Blues featuring Duke Robillard " First Album" CD
PLAYORDER=
